<?xml version="1.0" standalone="no"?>
<!DOCTYPE svg PUBLIC "-//W3C//DTD SVG 20010904//EN"
 "http://www.w3.org/TR/2001/REC-SVG-20010904/DTD/svg10.dtd">
<svg version="1.0" xmlns="http://www.w3.org/2000/svg"
 width="700.000000pt" height="700.000000pt" viewBox="0 0 700.000000 700.000000"
 preserveAspectRatio="xMidYMid meet">
<metadata>
Created by potrace 1.14, written by Peter Selinger 2001-2017
</metadata>
<g transform="translate(0.000000,700.000000) scale(0.100000,-0.100000)"
fill="#000000" stroke="none">
<path d="M350 3500 l0 -3150 3150 0 3150 0 0 3150 0 3150 -3150 0 -3150 0 0
-3150z m2510 1095 c171 -38 343 -108 454 -184 l46 -32 -116 -173 -116 -174
-61 38 c-295 178 -740 181 -878 6 -16 -20 -24 -47 -27 -86 -10 -138 82 -205
338 -246 52 -9 148 -24 213 -35 398 -66 645 -237 712 -494 20 -78 20 -242 0
-318 -59 -223 -244 -392 -517 -471 -135 -39 -241 -49 -438 -43 -245 8 -415 47
-605 138 -90 43 -234 134 -241 154 -5 13 233 355 248 355 4 0 34 -17 66 -39
113 -77 244 -130 389 -157 112 -21 351 -15 430 10 59 19 138 70 165 107 29 38
40 103 28 150 -31 114 -157 175 -435 209 -347 43 -555 120 -691 255 -106 105
-154 226 -154 390 0 173 53 300 174 420 126 124 271 195 468 230 112 19 442
13 548 -10z m2530 -240 l0 -215 -330 0 -330 0 0 -855 0 -855 -250 0 -250 0 0
855 0 855 -325 0 -325 0 0 215 0 215 905 0 905 0 0 -215z"/>
</g>
</svg>
